# Media Information
<pre>
General
Unique ID                                : 234857291048572039485720394857203948572 (0xB0A1C2D3E4F5A6B7C8D9E0F1A2B3C4D5)
Complete name                            : X2.2003.1080p.JPN.BluRay.REMUX.AVC.DTS-HD.MA.5.1-MUTANT.mkv
Format                                   : Matroska
Format version                           : Version 4
File size                                : 32.4 GiB
Duration                                 : 2 h 14 min
Overall bit rate mode                    : Variable
Overall bit rate                         : 34.5 Mb/s
Movie name                               : X-MEN2
Encoded date                             : UTC 2009-08-28 14:22:10
Writing application                      : mkvmerge v2.9.8 ('Beautiful People') built on Aug 20 2009 10:20:10
Writing library                          : libebml v0.7.7 + libmatroska v0.8.1

Video
ID                                       : 1
Format                                   : AVC
Format/Info                              : Advanced Video Codec
Format profile                           : High@L4.1
Format settings                          : CABAC / 4 Ref Frames
Format settings, CABAC                   : Yes
Format settings, Reference frames        : 4 frames
Codec ID                                 : V_MPEG4/ISO/AVC
Duration                                 : 2 h 14 min
Bit rate mode                            : Variable
Bit rate                                 : 28.5 Mb/s
Maximum bit rate                         : 40.0 Mb/s
Width                                    : 1 920 pixels
Height                                   : 1 080 pixels
Display aspect ratio                     : 16:9
Frame rate mode                          : Constant
Frame rate                               : 23.976 (24000/1001) FPS
Color space                              : YUV
Chroma subsampling                       : 4:2:0
Bit depth                                : 8 bits
Scan type                                : Progressive
Bits/(Pixel*Frame)                       : 0.573
Stream size                              : 26.8 GiB (83%)
Language                                 : English
Default                                  : Yes
Forced                                   : No

Audio #1
ID                                       : 2
Format                                   : DTS LBR
Format/Info                              : Digital Theater Systems Low Bit Rate
Format profile                           : MA / Core
Codec ID                                 : A_DTS
Duration                                 : 2 h 14 min
Bit rate mode                            : Variable / Constant
Bit rate                                 : 4 105 kb/s / 1 509 kb/s
Channel(s)                               : 6 channels
Channel layout                           : C L R Ls Rs LFE
Sampling rate                            : 48.0 kHz
Frame rate                               : 93.750 FPS (512 SPF)
Bit depth                                : 24 bits
Compression mode                         : Lossless / Lossy
Stream size                              : 3.86 GiB (12%)
Title                                    : English 5.1 DTS-HD Master Audio
Language                                 : English
Default                                  : Yes
Forced                                   : No

Audio #2
ID                                       : 3
Format                                   : AC-3
Format/Info                              : Audio Coding 3
Commercial name                          : Dolby Digital
Codec ID                                 : A_AC3
Duration                                 : 2 h 14 min
Bit rate mode                            : Constant
Bit rate                                 : 640 kb/s
Channel(s)                               : 6 channels
Channel layout                           : L R C LFE Ls Rs
Sampling rate                            : 48.0 kHz
Frame rate                               : 31.250 FPS (1536 SPF)
Bit depth                                : 16 bits
Compression mode                         : Lossy
Stream size                              : 614 MiB (2%)
Title                                    : English 5.1 Dolby Digital
Language                                 : English
Default                                  : No
Forced                                   : No

Audio #3
ID                                       : 4
Format                                   : DTS
Format/Info                              : Digital Theater Systems
Codec ID                                 : A_DTS
Duration                                 : 2 h 14 min
Bit rate mode                            : Constant
Bit rate                                 : 768 kb/s
Channel(s)                               : 6 channels
Channel layout                           : C L R Ls Rs LFE
Sampling rate                            : 48.0 kHz
Frame rate                               : 93.750 FPS (512 SPF)
Bit depth                                : 24 bits
Compression mode                         : Lossy
Stream size                              : 738 MiB (2%)
Title                                    : Japanese 5.1 DTS
Language                                 : Japanese
Default                                  : No
Forced                                   : No

Text #1
ID                                       : 5
Format                                   : PGS
Codec ID                                 : S_HDMV/PGS
Codec ID/Info                            : Picture based subtitle format used on BDs
Duration                                 : 2 h 08 min
Bit rate                                 : 32.4 kb/s
Count of elements                        : 2480
Stream size                              : 29.8 MiB (0%)
Title                                    : Japanese
Language                                 : Japanese
Default                                  : Yes
Forced                                   : No

Text #2
ID                                       : 6
Format                                   : PGS
Codec ID                                 : S_HDMV/PGS
Codec ID/Info                            : Picture based subtitle format used on BDs
Duration                                 : 2 h 12 min
Bit rate                                 : 45.1 kb/s
Count of elements                        : 3120
Stream size                              : 42.6 MiB (0%)
Title                                    : English
Language                                 : English
Default                                  : No
Forced                                   : No
</pre>